<svg width="256" xmlns="http://www.w3.org/2000/svg" height="256" fill="none"><defs><clipPath id="a" class="frame-clip frame-clip-def"><rect rx="0" ry="0" width="256" height="256" transform="matrix(1.000000, 0.000000, 0.000000, 1.000000, 0.000000, 0.000000)"/></clipPath></defs><g clip-path="url(#a)"><g class="fills"><rect rx="0" ry="0" width="256" height="256" transform="matrix(1.000000, 0.000000, 0.000000, 1.000000, 0.000000, 0.000000)" class="frame-background"/></g><g class="frame-children"><g style="opacity: 1;"><path d="M97.708,-0.496C62.278,-0.496,31.297,19.082,14.903,48.089C14.129,49.459,13.389,50.848,12.680,52.256C-3.678,83.920,-3.052,119.173,7.968,151.069C18.970,182.912,40.217,211.666,65.938,231.540C66.910,232.357,67.890,233.162,68.871,233.950C68.872,233.952,68.874,233.953,68.876,233.955C73.413,237.596,78.204,241.047,83.330,244.003C84.506,244.682,85.710,245.330,86.932,245.955C101.576,254.446,119.348,259.423,137.226,254.624C138.746,254.292,140.252,253.906,141.736,253.470C145.527,252.359,149.209,250.938,152.803,249.334C153.947,248.826,155.081,248.294,156.210,247.749L156.383,247.668C212.295,222.589,261.785,165.075,255.146,99.357C255.138,99.279,255.129,99.201,255.118,99.124C254.926,97.750,254.698,96.374,254.429,95.001C254.185,93.741,253.895,92.479,253.577,91.213C253.392,90.257,253.195,89.317,252.990,88.369L253.024,88.537C246.629,54.338,214.799,31.326,180.669,36.699C179.761,36.779,178.860,36.873,177.970,36.987C177.966,36.988,177.963,36.988,177.959,36.988C176.515,37.177,175.084,37.411,173.667,37.688C156.279,14.518,128.704,-0.496,97.708,-0.496ZZM97.708,11.919C126.035,11.919,150.970,26.249,165.933,48.151C167.413,50.319,170.098,51.321,172.637,50.654C174.887,50.062,177.194,49.609,179.554,49.301C180.343,49.200,181.135,49.114,181.928,49.047C182.083,49.033,182.238,49.014,182.391,48.990C210.112,44.512,235.583,62.807,240.820,90.819C240.831,90.875,240.842,90.931,240.854,90.987C241.048,91.890,241.228,92.743,241.388,93.571C241.411,93.693,241.438,93.814,241.469,93.934C241.764,95.083,242.019,96.220,242.242,97.367C242.242,97.370,242.242,97.372,242.242,97.375C242.459,98.483,242.643,99.602,242.801,100.725C248.670,159.499,203.080,213.186,151.140,236.415C151.082,236.441,151.024,236.468,150.966,236.495C149.884,237.020,148.812,237.521,147.750,237.993C147.748,237.994,147.746,237.995,147.744,237.996C144.539,239.426,141.370,240.640,138.241,241.557C138.240,241.557,138.238,241.557,138.237,241.557C136.984,241.925,135.733,242.247,134.497,242.515C134.389,242.538,134.282,242.564,134.176,242.593C120.326,246.374,105.920,242.615,93.158,235.215C93.056,235.156,92.951,235.099,92.846,235.046C91.741,234.487,90.636,233.885,89.532,233.249C89.532,233.248,89.532,233.248,89.532,233.248C85.134,230.712,80.843,227.639,76.650,224.275L76.645,224.271C75.708,223.518,74.782,222.759,73.872,221.992C73.804,221.935,73.735,221.879,73.664,221.825C49.870,203.484,29.858,176.410,19.702,147.014C9.546,117.618,9.128,86.159,23.721,57.930C23.732,57.909,23.742,57.889,23.752,57.868C24.377,56.626,25.029,55.403,25.710,54.199C25.710,54.199,25.710,54.199,25.710,54.198C39.991,28.929,66.844,11.919,97.708,11.919ZZ" style="stop-opacity: 1; stroke-opacity: 1; vector-effect: none; color: rgb(0, 0, 0); font-variation-settings: normal; stroke-dashoffset: 0; stroke-width: 1.04214; stroke-linejoin: miter; stroke-dasharray: none; stroke-miterlimit: 4; stop-color: rgb(0, 0, 0); fill: rgb(0, 0, 0); fill-opacity: 1;" class="fills"/></g><path d="M119.871,76.246C119.655,76.246,119.449,76.332,119.296,76.484C119.144,76.637,119.058,76.844,119.058,77.059L119.058,178.941C119.058,179.390,119.422,179.754,119.871,179.754L136.129,179.754C136.578,179.754,136.942,179.390,136.942,178.941L136.942,77.059C136.942,76.844,136.856,76.637,136.704,76.484C136.551,76.332,136.345,76.246,136.129,76.246L119.871,76.246ZM51.114,122.852C50.899,122.852,50.692,122.937,50.539,123.090C50.387,123.242,50.301,123.449,50.301,123.665L50.301,138.839C50.302,139.288,50.665,139.651,51.114,139.652L85.797,139.652C86.013,139.652,86.220,139.566,86.372,139.414C86.525,139.261,86.611,139.054,86.611,138.839L86.611,123.665C86.611,123.449,86.525,123.242,86.373,123.090C86.220,122.937,86.013,122.852,85.797,122.852L51.114,122.852ZM170.203,122.852C169.987,122.852,169.780,122.937,169.627,123.090C169.475,123.242,169.389,123.449,169.389,123.665L169.389,138.839C169.389,139.054,169.475,139.261,169.628,139.414C169.780,139.566,169.987,139.652,170.203,139.652L204.886,139.652C205.335,139.651,205.698,139.287,205.699,138.839L205.699,123.665C205.699,123.216,205.335,122.852,204.886,122.852L170.203,122.852Z" style="color: rgb(0, 0, 0); stroke-linejoin: round; paint-order: stroke; fill: rgb(0, 0, 0); fill-opacity: 1;" class="fills"/></g></g></svg>