<svg width="256" xmlns="http://www.w3.org/2000/svg" height="256" fill="none"><defs><clipPath id="a" class="frame-clip frame-clip-def"><rect rx="0" ry="0" width="256" height="256" transform="matrix(1.000000, 0.000000, 0.000000, 1.000000, 0.000000, 0.000000)"/></clipPath></defs><g clip-path="url(#a)"><g class="fills"><rect rx="0" ry="0" width="256" height="256" transform="matrix(1.000000, 0.000000, 0.000000, 1.000000, 0.000000, 0.000000)" class="frame-background"/></g><g class="frame-children"><ellipse cx="128" cy="128" rx="128" ry="128" transform="matrix(1.000000, 0.000000, 0.000000, 1.000000, 0.000000, 0.000000)" style="fill: rgb(23, 23, 23); fill-opacity: 1;" class="fills"/><defs><clipPath id="b" class="frame-clip frame-clip-def"><rect rx="0" ry="0" x="48" y="48" width="160" height="160" transform="matrix(1.000000, 0.000000, 0.000000, 1.000000, 0.000000, 0.000000)"/></clipPath></defs><g clip-path="url(#b)"><g class="fills"><rect rx="0" ry="0" x="48" y="48" width="160" height="160" transform="matrix(1.000000, 0.000000, 0.000000, 1.000000, 0.000000, 0.000000)" class="frame-background"/></g><g class="frame-children"><g class="fills"><path d="M206.067,104.141C202.441,84.749,184.559,71.879,165.275,74.994C164.723,75.041,164.175,75.100,163.631,75.170C161.998,75.383,160.398,75.697,158.835,76.107C148.832,61.464,132.110,51.865,113.168,51.865C92.532,51.865,74.528,63.255,64.980,80.151C64.525,80.955,64.089,81.772,63.672,82.600C44.394,119.894,64.970,165.681,95.840,189.475C96.433,189.974,97.033,190.466,97.636,190.951C100.355,193.132,103.182,195.164,106.148,196.874C106.889,197.302,107.639,197.710,108.398,198.094C116.948,203.052,126.991,205.775,136.891,203.073C137.760,202.884,138.628,202.661,139.491,202.407C141.645,201.776,143.778,200.956,145.895,200.012C146.601,199.698,147.306,199.368,148.013,199.026C181.619,183.996,211.260,149.345,207.342,110.556C207.231,109.766,207.100,108.977,206.947,108.192C206.794,107.405,206.618,106.621,206.416,105.831C206.308,105.276,206.191,104.717,206.067,104.141ZL206.067,104.141Z" class="fills" style="fill: rgb(33, 44, 45); fill-opacity: 1;"/></g><g style="opacity: 1;"><path d="M109.141,48.000C87.082,48.000,67.794,60.189,57.587,78.249C57.105,79.101,56.645,79.966,56.203,80.843C46.019,100.557,46.409,122.504,53.270,142.362C60.120,162.187,73.348,180.089,89.361,192.462C89.966,192.971,90.576,193.472,91.187,193.963C91.188,193.964,91.189,193.965,91.190,193.966C94.015,196.233,96.998,198.381,100.189,200.222C100.922,200.644,101.671,201.048,102.432,201.437C111.549,206.724,122.613,209.822,133.744,206.834C134.690,206.627,135.628,206.387,136.552,206.116C138.912,205.424,141.204,204.539,143.442,203.541C144.154,203.224,144.860,202.893,145.563,202.554L145.671,202.503C180.481,186.890,211.293,151.082,207.159,110.167C207.154,110.119,207.149,110.070,207.142,110.022C207.023,109.167,206.880,108.310,206.713,107.455C206.561,106.671,206.380,105.885,206.182,105.097C206.067,104.502,205.944,103.916,205.817,103.326L205.838,103.431C201.857,82.139,182.040,67.812,160.791,71.157C160.226,71.207,159.665,71.265,159.110,71.337C159.108,71.337,159.106,71.337,159.104,71.337C158.204,71.455,157.314,71.600,156.432,71.773C145.606,57.348,128.438,48.000,109.141,48.000ZZM109.141,55.730C126.777,55.730,142.301,64.651,151.616,78.287C152.538,79.637,154.209,80.261,155.790,79.845C157.191,79.477,158.627,79.195,160.097,79.003C160.588,78.940,161.081,78.887,161.575,78.845C161.671,78.837,161.768,78.825,161.863,78.809C179.122,76.021,194.979,87.412,198.240,104.852C198.247,104.887,198.254,104.922,198.261,104.956C198.382,105.518,198.494,106.050,198.594,106.565C198.608,106.641,198.625,106.716,198.644,106.791C198.828,107.506,198.987,108.214,199.125,108.929C199.125,108.930,199.125,108.932,199.125,108.933C199.260,109.623,199.375,110.320,199.474,111.019C203.128,147.611,174.743,181.035,142.406,195.497C142.370,195.514,142.334,195.530,142.299,195.548C141.625,195.874,140.957,196.186,140.296,196.480C140.295,196.481,140.293,196.481,140.292,196.482C138.297,197.372,136.324,198.128,134.376,198.699C134.375,198.699,134.374,198.699,134.374,198.699C133.593,198.928,132.815,199.129,132.045,199.295C131.978,199.310,131.911,199.326,131.845,199.344C123.222,201.698,114.253,199.357,106.308,194.751C106.244,194.714,106.179,194.678,106.114,194.645C105.426,194.297,104.738,193.923,104.050,193.526C104.050,193.526,104.050,193.526,104.050,193.526C101.312,191.947,98.641,190.034,96.030,187.939L96.027,187.937C95.444,187.468,94.867,186.995,94.301,186.518C94.258,186.483,94.215,186.448,94.171,186.414C79.357,174.995,66.898,158.139,60.575,139.838C54.252,121.536,53.992,101.951,63.078,84.375C63.084,84.362,63.091,84.350,63.097,84.337C63.486,83.563,63.892,82.802,64.316,82.053C64.316,82.053,64.316,82.052,64.316,82.052C73.207,66.320,89.925,55.730,109.141,55.730ZZ" style="stop-opacity: 1; stroke-opacity: 1; vector-effect: none; color: rgb(0, 0, 0); font-variation-settings: normal; stroke-dashoffset: 0; stroke-width: 1.04214; stroke-linejoin: miter; stroke-dasharray: none; stroke-miterlimit: 4; stop-color: rgb(0, 0, 0); fill: rgb(136, 153, 127); fill-opacity: 1;" class="fills"/></g><path d="M122.939,95.779C122.805,95.779,122.676,95.832,122.581,95.927C122.486,96.022,122.433,96.151,122.433,96.285L122.433,159.715C122.433,159.995,122.660,160.221,122.939,160.221L133.061,160.221C133.340,160.221,133.567,159.995,133.567,159.715L133.567,96.285C133.567,96.151,133.514,96.022,133.419,95.927C133.324,95.832,133.195,95.779,133.061,95.779L122.939,95.779ZM80.132,124.795C79.998,124.795,79.869,124.848,79.774,124.943C79.679,125.038,79.626,125.167,79.626,125.301L79.626,134.748C79.626,135.027,79.853,135.254,80.132,135.254L101.725,135.254C101.860,135.254,101.988,135.201,102.083,135.106C102.178,135.011,102.232,134.882,102.232,134.748L102.232,125.301C102.232,125.167,102.178,125.038,102.083,124.943C101.988,124.848,101.860,124.795,101.725,124.795L80.132,124.795ZM154.275,124.795C154.140,124.795,154.012,124.848,153.917,124.943C153.822,125.038,153.768,125.167,153.768,125.301L153.768,134.748C153.768,134.882,153.822,135.011,153.917,135.106C154.012,135.201,154.140,135.254,154.275,135.254L175.868,135.254C176.148,135.254,176.374,135.027,176.374,134.748L176.374,125.301C176.374,125.022,176.148,124.795,175.868,124.795L154.275,124.795Z" style="color: rgb(0, 0, 0); stroke-linejoin: round; paint-order: stroke; fill: rgb(136, 153, 127); fill-opacity: 1;" class="fills"/></g></g></g></g></svg>